<svg xmlns="http://www.w3.org/2000/svg" xmlns:xlink="http://www.w3.org/1999/xlink" width="500" zoomAndPan="magnify" viewBox="0 0 375 374.999991" height="500" preserveAspectRatio="xMidYMid meet" version="1.0"><defs><clipPath id="289e8d34d4"><path d="M 50 31 L 331.289062 31 L 331.289062 350.308594 L 50 350.308594 Z M 50 31 " clip-rule="nonzero"/></clipPath></defs><g clip-path="url(#289e8d34d4)"><path fill="#cc2b31" d="M 310.035156 50.277344 C 297.394531 38.238281 280.449219 31.523438 262.992188 31.585938 C 244.960938 31.652344 228.015625 38.703125 215.261719 51.449219 L 190.9375 75.753906 L 167.222656 52.054688 C 140.808594 25.660156 97.792969 24.832031 71.121094 50.976562 C 44.183594 77.371094 44.023438 120.75 70.640625 147.34375 L 199.4375 276.039062 C 214.136719 290.730469 214.820312 314.648438 200.410156 329.613281 C 185.664062 344.925781 161.179688 345.105469 146.207031 330.144531 L 114.304688 298.265625 C 112.957031 296.921875 112.820312 294.792969 113.976562 293.273438 C 118.6875 287.085938 121.296875 279.214844 120.710938 270.738281 C 119.5625 254 105.867188 240.539062 89.097656 239.664062 C 69.675781 238.65625 53.578125 254.28125 53.835938 273.527344 C 54.070312 291.351562 68.613281 306.066406 86.445312 306.515625 C 92.199219 306.660156 97.632812 305.34375 102.414062 302.921875 C 103.867188 302.183594 105.628906 302.496094 106.777344 303.644531 L 139.738281 336.585938 C 148.917969 345.761719 160.972656 350.339844 173.03125 350.339844 C 185.085938 350.339844 197.148438 345.753906 206.324219 336.585938 C 224.679688 318.242188 224.679688 288.390625 206.324219 270.046875 L 77.09375 140.902344 C 54.191406 118.015625 54.191406 80.78125 77.09375 57.898438 C 99.996094 35.011719 137.265625 35.011719 160.160156 57.898438 L 187.59375 85.308594 C 188.511719 86.226562 189.730469 86.660156 190.9375 86.628906 C 192.148438 86.660156 193.363281 86.226562 194.28125 85.308594 L 221.167969 58.445312 C 232.320312 47.300781 247.371094 40.738281 263.132812 40.707031 C 278.871094 40.675781 293.667969 46.785156 304.789062 57.898438 C 315.902344 69.007812 322.015625 83.773438 321.992188 99.488281 C 321.96875 115.25 315.394531 130.304688 304.242188 141.457031 L 295.554688 150.136719 C 294.839844 150.851562 293.867188 151.253906 292.855469 151.253906 L 266.949219 151.253906 C 265.515625 151.253906 264.191406 150.441406 263.554688 149.15625 L 251.042969 124.152344 C 249.640625 121.351562 245.644531 121.351562 244.246094 124.152344 L 222.742188 167.089844 C 221.34375 169.894531 217.34375 169.894531 215.945312 167.089844 L 208.605469 152.40625 C 207.203125 149.605469 203.207031 149.605469 201.808594 152.40625 L 194.464844 167.082031 C 193.066406 169.886719 189.070312 169.886719 187.667969 167.082031 L 166.179688 124.136719 C 164.78125 121.335938 160.785156 121.335938 159.386719 124.136719 L 146.875 149.140625 C 146.226562 150.425781 144.914062 151.238281 143.476562 151.238281 L 120.550781 151.238281 C 118.050781 151.238281 115.875 153.160156 115.800781 155.660156 C 115.722656 158.242188 117.792969 160.351562 120.359375 160.351562 L 149.117188 160.351562 C 150.554688 160.351562 151.875 159.539062 152.515625 158.257812 L 159.386719 144.515625 C 160.785156 141.714844 164.78125 141.714844 166.179688 144.515625 L 187.667969 187.460938 C 189.070312 190.265625 193.066406 190.265625 194.464844 187.460938 L 201.808594 172.785156 C 203.207031 169.984375 207.203125 169.984375 208.605469 172.785156 L 215.945312 187.46875 C 217.34375 190.273438 221.34375 190.273438 222.742188 187.46875 L 244.230469 144.523438 C 245.628906 141.730469 249.628906 141.722656 251.027344 144.523438 L 257.90625 158.265625 C 258.550781 159.546875 259.867188 160.359375 261.304688 160.359375 L 296.304688 160.359375 C 296.304688 160.359375 296.304688 160.359375 296.3125 160.359375 L 296.320312 160.359375 C 296.601562 160.359375 296.875 160.332031 297.140625 160.285156 C 297.15625 160.285156 297.179688 160.277344 297.195312 160.277344 C 297.460938 160.222656 297.726562 160.148438 297.980469 160.050781 C 298 160.042969 298.023438 160.035156 298.046875 160.027344 C 298.296875 159.921875 298.542969 159.789062 298.769531 159.648438 C 298.792969 159.632812 298.816406 159.625 298.835938 159.609375 C 299.082031 159.441406 299.308594 159.257812 299.523438 159.054688 C 299.53125 159.046875 299.53125 159.046875 299.535156 159.039062 L 310.574219 148.011719 C 323.632812 134.960938 331.257812 117.285156 331.113281 98.828125 C 330.960938 80.371094 323.472656 63.078125 310.035156 50.277344 Z M 62.957031 273.070312 C 62.957031 259.648438 73.886719 248.734375 87.3125 248.734375 C 100.734375 248.734375 111.664062 259.65625 111.664062 273.070312 C 111.664062 286.492188 100.734375 297.40625 87.3125 297.40625 C 73.886719 297.40625 62.957031 286.492188 62.957031 273.070312 Z M 62.957031 273.070312 " fill-opacity="1" fill-rule="nonzero"/></g></svg>